# xmcd
# Track frame offsets:
# 182
# 10465
# 18770
# 28925
# 43302
# 60422
# 68567
# 82920
# 97185
# 110800
# 124690
# 134505
# 143207
# 149910
# 162607
#
# Disc length: 2406 seconds
# Revision: 0
# Processed by: cddbd v1.5.2PL0 Copyright (c) Steve Scherf et al.
# Submitted via: VisiTrax 2.9.5.180 - For more info visit www.synapsa.com
#
DISCID=e109640f
DTITLE=Boxcar Willie - Boxcar Willie and Friends Live at Wembley
DYEAR=1988
DGENRE=Country
TTITLE0=T for Texas
TTITLE1=Anytime Just a little lovin'
TTITLE2=Jambalaya
TTITLE3=He'll have to go
TTITLE4=San Antonio Rose
TTITLE5=They all go native on Saturday
TTITLE6=The Tennessee waltz
TTITLE7=If you've got the money honey
TTITLE8=You are my sunshine
TTITLE9=Waltz across Texas
TTITLE10=Black Mountain rag
TTITLE11=Steel guitar rag
TTITLE12=Watching a new love grow
TTITLE13=Medley: Mountain dew, She'll be comin' round the mountain, Ya'll come
TTITLE14=There'll be peace in the valley for me
EXTD=
EXTT0=
EXTT1=
EXTT2=
EXTT3=
EXTT4=
EXTT5=
EXTT6=
EXTT7=
EXTT8=
EXTT9=
EXTT10=
EXTT11=
EXTT12=
EXTT13=
EXTT14=
PLAYORDER=
